# Blender 3.6.20
# www.blender.org
mtllib spaceshiptest1.mtl
o Cube
v -0.794593 1.036427 7.259486
v -0.645374 2.464726 6.984261
v -0.685865 1.529003 -0.402239
v -0.685865 1.926460 -0.402239
v 0.000000 1.529003 -0.547355
v 0.000000 2.002842 -0.547355
v 0.000000 1.036427 7.259486
v 0.000000 2.464726 6.984261
v -1.020433 0.918764 7.259089
v -1.011774 2.620780 7.343246
v -1.047553 1.450294 -0.329000
v -1.047553 1.992887 -0.329000
v -2.790799 1.445324 7.056863
v -3.005941 1.996771 7.056185
v -2.431651 1.673462 -0.065609
v -2.431651 1.792012 -0.065609
v -0.794593 1.036427 9.382693
v 0.000000 1.036427 9.382693
v 0.000000 2.439678 9.382693
v -1.020433 0.918764 9.382297
v -1.011889 2.620787 9.311919
v -2.784586 1.399649 9.347054
v -3.026408 2.041926 9.347054
v -0.806893 1.404057 11.292053
v -0.806893 2.073643 11.292053
v -0.225947 1.488880 11.292053
v -0.225947 1.988821 11.292053
v -1.032733 1.347912 11.291656
v -1.075936 2.047878 11.293580
v -2.222349 1.631924 11.262354
v -2.222349 1.832940 11.262354
v -0.804871 2.133819 10.978161
v -1.029396 2.274710 10.773666
v 0.000000 1.304323 10.774063
v -0.803556 1.304323 10.774063
v -1.029396 1.231489 10.773666
v -2.550603 1.529160 10.738422
v -2.616207 1.926734 10.738422
v 0.000000 2.133819 10.978161
v -0.869163 2.894965 9.311919
v -0.887817 2.864548 7.527799
v 0.000000 2.949057 7.319334
v -0.531120 2.949057 7.319334
v -0.803556 2.798294 10.623407
v -0.605236 3.068771 9.335993
v 0.000000 3.068771 9.335993
v -0.908353 2.642047 10.614870
v 0.000000 2.847381 10.623407
v -0.911706 2.064663 -0.354852
v -0.911706 1.375463 -0.354852
v -2.564219 1.788486 0.128520
v -2.585045 1.677829 0.126614
v -1.034945 1.992887 -0.262748
v -1.034945 1.450294 -0.262748
v -2.419044 1.792012 0.000643
v -2.419044 1.673462 0.000643
v -2.567498 1.642437 -0.039758
v -2.784586 1.399649 7.223846
v -3.026408 2.041926 7.223846
v -2.567498 1.824356 -0.039758
v -2.521653 1.693187 0.129343
v -2.727407 1.460683 7.059593
v -2.942549 2.012130 7.058914
v -2.500827 1.803844 0.131249
v 0.000000 2.073643 11.292053
v -0.905915 1.988821 11.291880
v -0.883527 1.488880 11.291919
v 0.000000 1.404057 11.292053
v -1.058786 1.445310 11.293133
v -1.032733 2.152090 11.291656
v -2.463494 1.577375 11.256413
v -2.463494 1.883849 11.256413
v -0.883143 1.488900 11.230081
v -0.905532 1.988840 11.230042
v -1.058402 1.445330 11.231295
v -1.075553 2.047897 11.231742
v -0.225563 1.988840 11.230215
v -0.225563 1.488900 11.230215
v -2.221965 1.631944 11.200516
v -2.221965 1.832960 11.200516
v -0.794593 2.439678 6.966931
v 0.000000 2.439678 6.966931
v 0.000000 2.976317 7.383364
v -0.605236 2.976317 7.383364
v 0.000000 2.447516 7.014386
v -0.645374 2.447516 7.014386
v 0.000000 2.931847 7.349459
v -0.531120 2.931847 7.349459
v 0.000000 2.974105 7.336663
v -0.668522 2.974105 7.336663
v 0.000000 3.070982 9.382693
v -0.668522 3.070982 9.382693
v 0.000000 2.965157 7.384004
v -0.605236 2.965157 7.384004
v 0.000000 3.057611 9.336633
v -0.605236 3.057611 9.336633
v -1.020433 2.604079 9.382297
v -1.020433 2.604079 7.259089
v -0.859871 2.912917 9.382297
v -0.879768 2.880277 7.468204
v -0.943622 2.591777 9.311867
v -0.943508 2.591770 7.343194
v -0.800897 2.865955 9.311867
v -0.819550 2.835538 7.527746
v 0.794593 1.036427 7.259486
v 0.645374 2.464726 6.984261
v 0.685865 1.529003 -0.402239
v 0.685865 1.926460 -0.402239
v 1.020433 0.918764 7.259089
v 1.011774 2.620780 7.343246
v 1.047553 1.450294 -0.329000
v 1.047553 1.992887 -0.329000
v 2.790799 1.445324 7.056863
v 3.005941 1.996771 7.056185
v 2.431651 1.673462 -0.065609
v 2.431651 1.792012 -0.065609
v 0.794593 1.036427 9.382693
v 1.020433 0.918764 9.382297
v 1.011889 2.620787 9.311919
v 2.784586 1.399649 9.347054
v 3.026408 2.041926 9.347054
v 0.806893 1.404057 11.292053
v 0.806893 2.073643 11.292053
v 0.225947 1.488880 11.292053
v 0.225947 1.988821 11.292053
v 1.032733 1.347912 11.291656
v 1.075936 2.047878 11.293580
v 2.222349 1.631924 11.262354
v 2.222349 1.832940 11.262354
v 0.804871 2.133819 10.978161
v 1.029396 2.274710 10.773666
v 0.803556 1.304323 10.774063
v 1.029396 1.231489 10.773666
v 2.550603 1.529160 10.738422
v 2.616207 1.926734 10.738422
v 0.869163 2.894965 9.311919
v 0.887817 2.864548 7.527799
v 0.531120 2.949057 7.319334
v 0.803556 2.798294 10.623407
v 0.605236 3.068771 9.335993
v 0.908353 2.642047 10.614870
v 0.911706 2.064663 -0.354852
v 0.911706 1.375463 -0.354852
v 2.564219 1.788486 0.128520
v 2.585045 1.677829 0.126614
v 1.034945 1.992887 -0.262748
v 1.034945 1.450294 -0.262748
v 2.419044 1.792012 0.000643
v 2.419044 1.673462 0.000643
v 2.567498 1.642437 -0.039758
v 2.784586 1.399649 7.223846
v 3.026408 2.041926 7.223846
v 2.567498 1.824356 -0.039758
v 2.521653 1.693187 0.129343
v 2.727407 1.460683 7.059593
v 2.942549 2.012130 7.058914
v 2.500827 1.803844 0.131249
v 0.905915 1.988821 11.291880
v 0.883527 1.488880 11.291919
v 1.058786 1.445310 11.293133
v 1.032733 2.152090 11.291656
v 2.463494 1.577375 11.256413
v 2.463494 1.883849 11.256413
v 0.883143 1.488900 11.230081
v 0.905532 1.988840 11.230042
v 1.058402 1.445330 11.231295
v 1.075553 2.047897 11.231742
v 0.225563 1.988840 11.230215
v 0.225563 1.488900 11.230215
v 2.221965 1.631944 11.200516
v 2.221965 1.832960 11.200516
v 0.794593 2.439678 6.966931
v 0.605236 2.976317 7.383364
v 0.645374 2.447516 7.014386
v 0.531120 2.931847 7.349459
v 0.668522 2.974105 7.336663
v 0.668522 3.070982 9.382693
v 0.605236 2.965157 7.384004
v 0.605236 3.057611 9.336633
v 1.020433 2.604079 9.382297
v 1.020433 2.604079 7.259089
v 0.859871 2.912917 9.382297
v 0.879768 2.880277 7.468204
v 0.943622 2.591777 9.311867
v 0.943508 2.591770 7.343194
v 0.800897 2.865955 9.311867
v 0.819550 2.835538 7.527746
vn 0.5107 -0.8585 -0.0461
vn -0.2630 -0.9648 -0.0000
vn -0.0577 0.9963 -0.0640
vn -0.0062 -0.9980 -0.0636
vn -0.2070 -0.0000 -0.9783
vn -0.9824 -0.0000 0.1869
vn -0.2054 -0.0000 -0.9787
vn -0.0000 -1.0000 -0.0000
vn 0.5286 0.8473 -0.0519
vn -0.0407 -0.0096 0.9991
vn -0.2698 0.9629 -0.0000
vn -0.2179 0.9742 -0.0579
vn -0.2173 -0.9748 -0.0506
vn -0.1772 -0.9697 0.1684
vn -0.0000 -0.9820 0.1891
vn 0.3525 0.9135 0.2030
vn 0.4620 -0.8869 -0.0000
vn -0.9359 -0.3524 -0.0000
vn 1.0000 -0.0000 -0.0000
vn -0.5010 0.6060 -0.6178
vn 0.1583 0.9874 0.0013
vn -0.0000 -1.0000 -0.0003
vn -1.0000 -0.0000 -0.0062
vn -0.9701 -0.0904 0.2250
vn 0.2688 -0.9425 0.1984
vn -0.0000 0.9821 0.1883
vn -0.2008 0.9624 0.1827
vn -0.3910 -0.9202 0.0198
vn -0.2447 0.9514 0.1873
vn 0.3811 -0.9045 0.1912
vn -0.9359 -0.2767 0.2181
vn -0.0140 0.4577 0.8890
vn -0.2307 -0.9579 0.1709
vn -0.5361 0.8438 -0.0249
vn -0.0327 0.9804 0.1943
vn -0.7258 0.6812 0.0958
vn -0.9148 0.3976 0.0709
vn -0.5040 0.4320 0.7479
vn -0.0000 -0.8683 -0.4960
vn -0.1869 -0.0000 -0.9824
vn 0.1387 -0.9900 -0.0264
vn 0.9824 -0.0000 -0.1869
vn 0.1537 0.9877 -0.0292
vn -0.9589 -0.2813 -0.0380
vn -0.9331 -0.3572 -0.0403
vn -0.9582 -0.2812 -0.0524
vn -0.9966 0.0712 -0.0424
vn -0.9586 -0.2812 -0.0453
vn 0.0396 0.0142 -0.9991
vn 0.2334 -0.9714 0.0441
vn -0.2364 0.9713 0.0256
vn -0.0001 -0.0008 1.0000
vn -0.0001 0.0006 1.0000
vn -0.0000 -0.0000 1.0000
vn 0.0034 -0.0055 1.0000
vn 0.0052 0.0054 1.0000
vn -0.0246 -0.0000 0.9997
vn -0.0285 0.0144 0.9995
vn -0.0271 -0.0104 0.9996
vn -0.0002 -0.0000 1.0000
vn 0.0084 -0.0001 1.0000
vn -0.0268 -0.0011 0.9996
vn 1.0000 -0.0000 0.0062
vn -0.2413 0.9705 -0.0012
vn -0.0000 1.0000 0.0003
vn 0.1843 -0.9829 0.0008
vn -0.3281 -0.9446 -0.0023
vn -0.0000 0.5689 -0.8224
vn 0.9816 -0.1660 -0.0948
vn -0.0000 0.8683 0.4960
vn -0.0000 0.9989 -0.0473
vn -0.0000 -0.0572 -0.9984
vn -0.0000 0.0572 0.9984
vn -0.8891 0.4578 -0.0000
vn -0.8871 0.4615 0.0006
vn -0.8893 0.4574 0.0015
vn -0.8914 0.4531 0.0007
vn -0.8892 0.4576 0.0007
vn 0.3911 0.9203 -0.0000
vn -0.2186 -0.5159 0.8283
vn -0.0006 0.0003 -1.0000
vn -0.5107 -0.8585 -0.0461
vn 0.2630 -0.9648 -0.0000
vn 0.0577 0.9963 -0.0640
vn 0.0062 -0.9980 -0.0636
vn 0.2070 -0.0000 -0.9783
vn 0.9824 -0.0000 0.1869
vn 0.2054 -0.0000 -0.9787
vn -0.5286 0.8473 -0.0519
vn 0.0407 -0.0096 0.9991
vn 0.2698 0.9629 -0.0000
vn 0.2179 0.9742 -0.0579
vn 0.2173 -0.9748 -0.0506
vn 0.1772 -0.9697 0.1684
vn -0.3525 0.9135 0.2030
vn -0.4620 -0.8869 -0.0000
vn 0.9359 -0.3524 -0.0000
vn 0.5010 0.6060 -0.6178
vn -0.1583 0.9874 0.0013
vn 1.0000 -0.0000 -0.0062
vn 0.9701 -0.0904 0.2250
vn -0.2688 -0.9425 0.1984
vn 0.2008 0.9624 0.1827
vn 0.3910 -0.9202 0.0198
vn 0.2447 0.9514 0.1873
vn -0.3811 -0.9045 0.1912
vn 0.9359 -0.2767 0.2181
vn 0.0140 0.4577 0.8890
vn 0.2307 -0.9579 0.1709
vn 0.5361 0.8438 -0.0249
vn -1.0000 -0.0000 -0.0000
vn 0.0327 0.9804 0.1943
vn 0.7258 0.6812 0.0958
vn 0.9148 0.3976 0.0709
vn 0.5040 0.4320 0.7479
vn 0.1869 -0.0000 -0.9824
vn -0.1387 -0.9900 -0.0264
vn -0.9824 -0.0000 -0.1869
vn -0.1537 0.9877 -0.0292
vn 0.9589 -0.2813 -0.0380
vn 0.9331 -0.3572 -0.0403
vn 0.9582 -0.2812 -0.0524
vn 0.9966 0.0712 -0.0424
vn 0.9586 -0.2812 -0.0453
vn -0.0396 0.0142 -0.9991
vn -0.2334 -0.9714 0.0441
vn 0.2364 0.9713 0.0256
vn 0.0001 -0.0008 1.0000
vn 0.0001 0.0006 1.0000
vn -0.0034 -0.0055 1.0000
vn -0.0052 0.0054 1.0000
vn 0.0246 -0.0000 0.9997
vn 0.0285 0.0144 0.9995
vn 0.0271 -0.0104 0.9996
vn 0.0002 -0.0000 1.0000
vn -0.0084 -0.0001 1.0000
vn 0.0268 -0.0011 0.9996
vn -1.0000 -0.0000 0.0062
vn 0.2413 0.9705 -0.0012
vn -0.1843 -0.9829 0.0008
vn 0.3281 -0.9446 -0.0023
vn -0.9816 -0.1660 -0.0948
vn 0.8891 0.4578 -0.0000
vn 0.8871 0.4615 0.0006
vn 0.8893 0.4574 0.0015
vn 0.8914 0.4531 0.0007
vn 0.8892 0.4576 0.0007
vn -0.3911 0.9203 -0.0000
vn 0.2186 -0.5159 0.8283
vn 0.0006 0.0003 -1.0000
vt 0.125000 0.500000
vt 0.125000 0.750000
vt 0.750000 0.500000
vt 0.875000 0.500000
vt 0.875000 0.750000
vt 0.750000 0.750000
vt 0.250000 0.500000
vt 0.250000 0.750000
vt 0.375000 0.250000
vt 0.625000 0.250000
vt 0.625000 0.375000
vt 0.375000 0.375000
vt 0.603437 0.250000
vt 0.396724 0.250000
vt 0.573437 0.244732
vt 0.426583 0.244727
vt 0.125000 0.750000
vt 0.875000 0.750000
vt 0.625000 0.000000
vt 0.375000 0.000000
vt 0.000000 0.000000
vt 0.429577 1.000000
vt 0.404665 1.000000
vt 0.593330 0.911670
vt 0.584920 1.000000
vt 0.406670 0.911670
vt 0.875000 0.750000
vt 0.875000 0.750000
vt 0.836454 0.717557
vt 0.864720 0.745823
vt 0.861769 0.750000
vt 0.763217 0.750000
vt 0.572662 0.250000
vt 0.427581 0.250000
vt 0.391713 0.005272
vt 0.608285 0.005270
vt 0.625000 0.875000
vt 0.625000 1.000000
vt 0.410789 1.000000
vt 0.375000 1.000000
vt 0.375000 0.875000
vt 0.594121 1.000000
vt 0.569799 1.000000
vt 0.863380 0.750000
vt 0.761606 0.750000
vt 0.055665 0.049562
vt 0.743161 0.737058
vt 0.875000 0.750000
s 0
usemtl Material.001
f 3/1/1 1/2/1 9/2/1 50/1/1
f 58/2/2 9/2/2 20/2/2 22/2/2
f 3/1/4 5/7/4 7/8/4 1/2/4
f 3/9/5 4/10/5 6/11/5 5/12/5
f 12/13/6 11/14/6 54/14/6 53/13/6
f 4/10/7 3/9/7 50/9/7 49/10/7
f 1/2/8 7/8/8 18/8/8 17/2/8
f 81/5/9 4/4/9 49/4/9 98/5/9
f 51/15/10 52/16/10 61/16/10 64/15/10
f 98/5/11 59/5/11 23/5/11 97/5/11
f 98/5/12 49/4/12 60/4/12 59/5/12
f 50/1/13 9/2/13 58/2/13 57/1/13
f 37/2/14 36/17/14 28/2/14 71/2/14
f 35/2/15 34/8/15 68/8/15 24/2/15
f 32/18/16 33/5/16 70/5/16 25/5/16
f 9/2/17 1/2/17 17/2/17 20/2/17
f 59/19/18 58/20/18 22/20/18 23/19/18
f 7/21/19 82/21/19 19/21/19 18/21/19
f 30/22/21 69/23/21 75/23/21 79/22/21
f 27/24/22 66/25/22 74/25/22 77/24/22
f 26/26/23 27/24/23 77/24/23 78/26/23
f 38/19/24 37/20/24 71/20/24 72/19/24
f 36/17/25 35/2/25 24/2/25 28/2/25
f 34/21/19 39/21/19 65/21/19 68/21/19
f 39/6/26 32/18/26 25/5/26 65/6/26
f 33/5/27 38/5/27 72/5/27 70/5/27
f 97/5/29 23/5/29 38/5/29 33/5/29
f 39/21/19 19/21/19 91/21/19 48/21/19
f 18/21/19 19/21/19 39/21/19 34/21/19
f 20/2/30 17/2/30 35/2/30 36/17/30
f 23/19/31 22/20/31 37/20/31 38/19/31
f 32/18/32 39/6/32 48/6/32 44/28/32
f 17/2/15 18/8/15 34/8/15 35/2/15
f 22/2/33 20/2/33 36/17/33 37/2/33
f 91/6/35 92/5/35 44/28/35 48/6/35
f 92/5/36 99/5/36 47/5/36 44/28/36
f 97/5/37 33/5/37 47/5/37 99/5/37
f 33/5/38 32/18/38 44/28/38 47/5/38
f 11/14/40 12/13/40 49/10/40 50/9/40
f 16/33/40 15/34/40 57/9/40 60/10/40
f 15/34/40 11/14/40 50/9/40 57/9/40
f 12/13/40 16/33/40 60/10/40 49/10/40
f 16/33/41 12/13/41 53/13/41 55/33/41
f 15/34/42 16/33/42 55/33/42 56/34/42
f 11/14/43 15/34/43 56/34/43 54/14/43
f 13/35/44 52/16/44 57/9/44 58/20/44
f 14/36/45 13/35/45 58/20/45 59/19/45
f 51/15/46 14/36/46 59/19/46 60/10/46
f 52/16/47 51/15/47 60/10/47 57/9/47
f 13/35/49 14/36/49 63/36/49 62/35/49
f 14/36/50 51/15/50 64/15/50 63/36/50
f 52/16/51 13/35/51 62/35/51 61/16/51
f 66/25/52 27/24/52 65/37/52 25/38/52
f 26/26/53 67/39/53 24/40/53 68/41/53
f 27/24/54 26/26/54 68/41/54 65/37/54
f 67/39/55 69/23/55 28/40/55 24/40/55
f 29/42/56 66/25/56 25/38/56 70/38/56
f 30/22/57 31/43/57 72/38/57 71/40/57
f 31/43/58 29/42/58 70/38/58 72/38/58
f 69/23/59 30/22/59 71/40/59 28/40/59
f 73/39/61 74/25/61 76/42/61 75/23/61
f 31/43/63 30/22/63 79/22/63 80/43/63
f 69/23/64 67/39/64 73/39/64 75/23/64
f 67/39/65 26/26/65 78/26/65 73/39/65
f 29/42/66 31/43/66 80/43/66 76/42/66
f 66/25/67 29/42/67 76/42/67 74/25/67
f 107/1/82 143/1/82 109/2/82 105/2/82
f 151/2/83 120/2/83 118/2/83 109/2/83
f 107/1/85 105/2/85 7/8/85 5/7/85
f 107/9/86 5/12/86 6/11/86 108/10/86
f 112/13/87 146/13/87 147/14/87 111/14/87
f 108/10/88 142/10/88 143/9/88 107/9/88
f 105/2/8 117/2/8 18/8/8 7/8/8
f 172/5/89 181/5/89 142/4/89 108/4/89
f 144/15/90 157/15/90 154/16/90 145/16/90
f 181/5/91 180/5/91 121/5/91 152/5/91
f 181/5/92 152/5/92 153/4/92 142/4/92
f 143/1/93 150/1/93 151/2/93 109/2/93
f 134/2/94 162/2/94 126/2/94 133/17/94
f 132/2/15 122/2/15 68/8/15 34/8/15
f 130/18/95 123/5/95 161/5/95 131/5/95
f 109/2/96 118/2/96 117/2/96 105/2/96
f 152/19/97 121/19/97 120/20/97 151/20/97
f 128/22/99 170/22/99 166/23/99 160/23/99
f 125/24/22 168/24/22 165/25/22 158/25/22
f 124/26/100 169/26/100 168/24/100 125/24/100
f 135/19/101 163/19/101 162/20/101 134/20/101
f 133/17/102 126/2/102 122/2/102 132/2/102
f 39/6/26 65/6/26 123/5/26 130/18/26
f 131/5/103 161/5/103 163/5/103 135/5/103
f 180/5/105 131/5/105 135/5/105 121/5/105
f 118/2/106 133/17/106 132/2/106 117/2/106
f 121/19/107 135/19/107 134/20/107 120/20/107
f 130/18/108 139/28/108 48/6/108 39/6/108
f 117/2/15 132/2/15 34/8/15 18/8/15
f 120/2/109 134/2/109 133/17/109 118/2/109
f 91/6/112 48/6/112 139/28/112 177/5/112
f 177/5/113 139/28/113 141/5/113 182/5/113
f 180/5/114 182/5/114 141/5/114 131/5/114
f 131/5/115 141/5/115 139/28/115 130/18/115
f 111/14/116 143/9/116 142/10/116 112/13/116
f 116/33/116 153/10/116 150/9/116 115/34/116
f 115/34/116 150/9/116 143/9/116 111/14/116
f 112/13/116 142/10/116 153/10/116 116/33/116
f 116/33/117 148/33/117 146/13/117 112/13/117
f 115/34/118 149/34/118 148/33/118 116/33/118
f 111/14/119 147/14/119 149/34/119 115/34/119
f 113/35/120 151/20/120 150/9/120 145/16/120
f 114/36/121 152/19/121 151/20/121 113/35/121
f 144/15/122 153/10/122 152/19/122 114/36/122
f 145/16/123 150/9/123 153/10/123 144/15/123
f 113/35/125 155/35/125 156/36/125 114/36/125
f 114/36/126 156/36/126 157/15/126 144/15/126
f 145/16/127 154/16/127 155/35/127 113/35/127
f 158/25/128 123/38/128 65/37/128 125/24/128
f 124/26/129 68/41/129 122/40/129 159/39/129
f 125/24/54 65/37/54 68/41/54 124/26/54
f 159/39/130 122/40/130 126/40/130 160/23/130
f 127/42/131 161/38/131 123/38/131 158/25/131
f 128/22/132 162/40/132 163/38/132 129/43/132
f 129/43/133 163/38/133 161/38/133 127/42/133
f 160/23/134 126/40/134 162/40/134 128/22/134
f 164/39/136 166/23/136 167/42/136 165/25/136
f 129/43/138 171/43/138 170/22/138 128/22/138
f 160/23/139 166/23/139 164/39/139 159/39/139
f 159/39/65 164/39/65 169/26/65 124/26/65
f 127/42/140 167/42/140 171/43/140 129/43/140
f 158/25/141 165/25/141 167/42/141 127/42/141
usemtl Material.002
f 6/3/3 4/4/3 81/5/3 82/6/3
f 81/5/20 98/5/20 100/5/20 90/5/20
f 40/27/28 41/5/28 104/5/28 103/27/28
f 99/5/34 92/5/34 90/5/34 100/5/34
f 84/29/19 45/30/19 96/30/19 94/29/19
f 43/31/39 42/32/39 87/32/39 88/31/39
f 53/13/40 54/14/40 56/34/40 55/33/40
f 62/35/48 63/36/48 64/15/48 61/16/48
f 2/44/68 8/45/68 82/6/68 81/5/68
f 42/32/68 43/31/68 90/5/68 89/6/68
f 43/31/68 2/44/68 81/5/68 90/5/68
f 2/44/69 43/31/69 88/31/69 86/44/69
f 8/45/70 2/44/70 86/44/70 85/45/70
f 84/29/71 83/46/71 89/21/71 90/5/71
f 46/47/71 45/30/71 92/5/71 91/6/71
f 45/30/71 84/29/71 90/5/71 92/5/71
f 45/30/72 46/47/72 95/47/72 96/30/72
f 83/46/73 84/29/73 94/29/73 93/46/73
f 21/48/74 10/5/74 98/5/74 97/5/74
f 40/27/75 21/48/75 97/5/75 99/5/75
f 41/5/76 40/27/76 99/5/76 100/5/76
f 10/5/77 41/5/77 100/5/77 98/5/77
f 10/5/79 21/48/79 101/48/79 102/5/79
f 41/5/80 10/5/80 102/5/80 104/5/80
f 21/48/81 40/27/81 103/27/81 101/48/81
f 6/3/84 82/6/84 172/5/84 108/4/84
f 172/5/98 176/5/98 183/5/98 181/5/98
f 136/27/104 186/27/104 187/5/104 137/5/104
f 182/5/110 183/5/110 176/5/110 177/5/110
f 173/29/111 178/29/111 179/30/111 140/30/111
f 138/31/39 175/31/39 87/32/39 42/32/39
f 146/13/116 148/33/116 149/34/116 147/14/116
f 155/35/124 154/16/124 157/15/124 156/36/124
f 106/44/68 172/5/68 82/6/68 8/45/68
f 42/32/68 89/6/68 176/5/68 138/31/68
f 138/31/68 176/5/68 172/5/68 106/44/68
f 106/44/142 174/44/142 175/31/142 138/31/142
f 8/45/70 85/45/70 174/44/70 106/44/70
f 173/29/71 176/5/71 89/21/71 83/46/71
f 46/47/71 91/6/71 177/5/71 140/30/71
f 140/30/71 177/5/71 176/5/71 173/29/71
f 140/30/72 179/30/72 95/47/72 46/47/72
f 83/46/73 93/46/73 178/29/73 173/29/73
f 119/48/143 180/5/143 181/5/143 110/5/143
f 136/27/144 182/5/144 180/5/144 119/48/144
f 137/5/145 183/5/145 182/5/145 136/27/145
f 110/5/146 181/5/146 183/5/146 137/5/146
f 110/5/148 185/5/148 184/48/148 119/48/148
f 137/5/149 187/5/149 185/5/149 110/5/149
f 119/48/150 184/48/150 186/27/150 136/27/150
usemtl Material.003
f 85/45/68 86/44/68 88/31/68 87/32/68
f 94/29/71 96/30/71 95/47/71 93/46/71
f 102/5/78 101/48/78 103/27/78 104/5/78
f 85/45/68 87/32/68 175/31/68 174/44/68
f 178/29/71 93/46/71 95/47/71 179/30/71
f 185/5/147 187/5/147 186/27/147 184/48/147
usemtl Material.004
f 78/26/60 77/24/60 74/25/60 73/39/60
f 75/23/62 76/42/62 80/43/62 79/22/62
f 169/26/135 164/39/135 165/25/135 168/24/135
f 166/23/137 170/22/137 171/43/137 167/42/137
o Cube.001
v -5.331723 1.306462 12.623326
v -5.448820 2.062567 12.623326
v -5.264405 1.350605 7.135587
v -5.371106 2.039582 6.315935
v -3.438861 1.582593 12.623326
v -3.555958 2.338698 12.623326
v -3.516575 1.605578 6.961308
v -3.623275 2.294555 6.141656
v -5.393301 1.225554 10.127792
v -5.532184 2.122332 10.127792
v -3.355497 1.522828 10.127792
v -5.532184 2.122332 11.150673
v -3.355497 1.522828 11.150673
v -5.393301 1.225554 11.150673
v -3.626650 1.868596 12.031681
v -3.642905 1.980146 12.031681
v -3.592748 1.635932 10.458419
v -3.621644 1.834241 10.458419
v 0.000000 2.363675 12.031681
v 0.000000 2.475225 12.031681
v 0.000000 2.131011 10.458419
v 0.000000 2.329320 10.458419
v -5.371106 2.039582 7.126170
v -5.264405 1.350605 7.945823
v -3.516575 1.605578 7.771544
v -3.623275 2.294555 6.951891
v -5.532184 2.122332 6.337896
v -5.429554 2.069608 6.276329
v -5.518434 2.115268 6.281658
v -5.480869 2.095970 6.259122
v -5.311176 1.305229 7.185685
v -5.393301 1.225554 7.404763
v -5.352238 1.265391 7.247234
v -5.382298 1.236228 7.327422
v -3.458126 1.575552 7.000915
v -3.355497 1.522828 7.201570
v -3.406812 1.549190 7.053252
v -3.369247 1.529892 7.126698
v -3.576504 2.339931 6.091558
v -3.505383 2.408932 6.080932
v -3.535442 2.379769 6.065140
v -5.393301 1.225554 12.623326
v -5.532184 2.122332 12.623326
v -3.355497 1.522828 12.623326
v -5.331723 1.306462 12.442426
v -5.448820 2.062567 12.442426
v -3.555958 2.338698 12.442426
v -3.438861 1.582593 12.442426
v -5.334081 1.405132 12.461718
v -5.350809 1.513147 12.461718
v -5.367537 1.621162 12.461718
v -5.384265 1.729177 12.461718
v -5.400993 1.837192 12.461718
v -5.417722 1.945207 12.461718
v -3.524860 2.221337 12.461718
v -3.508132 2.113322 12.461718
v -3.491404 2.005307 12.461718
v -3.474676 1.897292 12.461718
v -3.457948 1.789277 12.461718
v -3.441220 1.681262 12.461718
v -5.061314 1.345909 12.442426
v -4.790905 1.385357 12.442426
v -4.520496 1.424804 12.442426
v -4.250087 1.464251 12.442426
v -3.979679 1.503698 12.442426
v -3.709270 1.543145 12.442426
v -3.826367 2.299251 12.442426
v -4.096776 2.259803 12.442426
v -4.367184 2.220356 12.442426
v -4.637593 2.180909 12.442426
v -4.908002 2.141462 12.442426
v -5.178411 2.102015 12.442426
v -3.711628 1.641815 12.461718
v -3.982037 1.602368 12.461718
v -4.252446 1.562920 12.461718
v -4.522854 1.523473 12.461718
v -4.793263 1.484026 12.461718
v -5.063673 1.444579 12.461718
v -3.728357 1.749830 12.461718
v -3.998765 1.710383 12.461718
v -4.269174 1.670936 12.461718
v -4.539582 1.631488 12.461718
v -4.809991 1.592041 12.461718
v -5.080400 1.552594 12.461718
v -3.745085 1.857845 12.461718
v -4.015493 1.818398 12.461718
v -4.285902 1.778951 12.461718
v -4.556310 1.739503 12.461718
v -4.826719 1.700056 12.461718
v -5.097128 1.660609 12.461718
v -3.761813 1.965860 12.461718
v -4.032221 1.926413 12.461718
v -4.302630 1.886966 12.461718
v -4.573039 1.847518 12.461718
v -4.843448 1.808071 12.461718
v -5.113856 1.768624 12.461718
v -3.778541 2.073875 12.461718
v -4.048949 2.034428 12.461718
v -4.319358 1.994981 12.461718
v -4.589767 1.955533 12.461718
v -4.860176 1.916086 12.461718
v -5.130585 1.876639 12.461718
v -3.795269 2.181890 12.461718
v -4.065678 2.142443 12.461718
v -4.336087 2.102996 12.461718
v -4.606495 2.063548 12.461718
v -4.876904 2.024101 12.461718
v -5.147313 1.984654 12.461718
v -5.334081 1.405132 12.597215
v -5.350809 1.513147 12.597215
v -5.367537 1.621162 12.597215
v -5.384265 1.729177 12.597215
v -5.400993 1.837192 12.597215
v -5.417722 1.945207 12.597215
v -3.524860 2.221337 12.597215
v -3.508132 2.113322 12.597215
v -3.491404 2.005307 12.597215
v -3.474676 1.897292 12.597215
v -3.457948 1.789277 12.597215
v -3.441220 1.681262 12.597215
v -5.063673 1.444579 12.597215
v -3.711628 1.641815 12.597215
v -3.982037 1.602368 12.597215
v -4.252446 1.562920 12.597215
v -4.522854 1.523473 12.597215
v -4.793263 1.484026 12.597215
v -5.080400 1.552594 12.597215
v -3.728357 1.749830 12.597215
v -3.998765 1.710383 12.597215
v -4.269174 1.670936 12.597215
v -4.539582 1.631488 12.597215
v -4.809991 1.592041 12.597215
v -5.097128 1.660609 12.597215
v -3.745085 1.857845 12.597215
v -4.015493 1.818398 12.597215
v -4.285902 1.778951 12.597215
v -4.556310 1.739503 12.597215
v -4.826719 1.700056 12.597215
v -5.113856 1.768624 12.597215
v -3.761813 1.965860 12.597215
v -4.032221 1.926413 12.597215
v -4.302630 1.886966 12.597215
v -4.573039 1.847518 12.597215
v -4.843448 1.808071 12.597215
v -5.130585 1.876639 12.597215
v -3.778541 2.073875 12.597215
v -4.048949 2.034428 12.597215
v -4.319358 1.994981 12.597215
v -4.589767 1.955533 12.597215
v -4.860176 1.916086 12.597215
v -5.147313 1.984654 12.597215
v -3.795269 2.181890 12.597215
v -4.065678 2.142443 12.597215
v -4.336087 2.102996 12.597215
v -4.606495 2.063548 12.597215
v -4.876904 2.024101 12.597215
v -5.080065 1.271248 12.623326
v -4.900567 1.297433 12.623326
v -5.039450 2.194212 12.623326
v -5.218948 2.168026 12.623326
v -4.900567 1.297433 10.127792
v -5.039449 2.194212 11.150673
v -4.900567 1.297433 11.150673
v -5.218948 2.168026 10.127792
v -5.039449 2.194212 10.127792
v -5.080065 1.271248 10.127792
v -5.218948 2.168026 11.150673
v -5.080065 1.271248 11.150673
v -4.841785 1.412257 7.093447
v -4.995742 1.389797 7.108798
v -5.102443 2.078774 6.289145
v -4.948487 2.101233 6.273794
v -4.841785 1.412257 7.903683
v -4.995742 1.389797 7.919034
v -5.102443 2.078774 7.099381
v -4.948487 2.101233 7.084030
v -4.900567 1.297433 7.355631
v -5.080065 1.271248 7.373529
v -5.072867 1.281368 7.296568
v -4.895549 1.307235 7.278887
v -5.053202 1.309015 7.217417
v -4.881841 1.334013 7.200330
v -5.026340 1.346781 7.157283
v -4.863115 1.370592 7.141008
v -5.218948 2.168026 6.306663
v -5.039449 2.194212 6.288765
v -5.031685 2.186275 6.233123
v -5.209003 2.160408 6.250803
v -5.010470 2.164592 6.212218
v -5.181832 2.139593 6.229304
v -4.981493 2.134971 6.231652
v -5.144718 2.111160 6.247927
v -5.040767 1.348907 12.623326
v -4.874035 1.373230 12.623326
v -4.991132 2.129335 12.623326
v -5.157863 2.105012 12.623326
v -5.097919 2.571749 12.623326
v -5.153138 2.563694 12.623326
v -5.161303 2.981032 10.127792
v -5.216522 2.972976 11.150673
v -5.161303 2.981032 11.150673
v -5.216522 2.972976 10.127792
v -5.304551 2.720772 8.952303
v -5.043464 2.220134 6.288765
v 5.331723 1.306462 12.623326
v 5.448820 2.062567 12.623326
v 5.264405 1.350605 7.135587
v 5.371106 2.039582 6.315935
v 3.438861 1.582593 12.623326
v 3.555958 2.338698 12.623326
v 3.516575 1.605578 6.961308
v 3.623275 2.294555 6.141656
v 3.355497 1.522828 10.127792
v 5.393301 1.225554 11.150673
v 5.532184 2.122332 11.150673
v 3.355497 1.522828 11.150673
v 5.532184 2.122332 10.127792
v 5.393301 1.225554 10.127792
v 3.626650 1.868596 12.031681
v 3.642905 1.980146 12.031681
v 3.592748 1.635932 10.458419
v 3.621644 1.834241 10.458419
v 5.371106 2.039582 7.126170
v 5.264405 1.350605 7.945823
v 3.516575 1.605578 7.771544
v 3.623275 2.294555 6.951891
v 5.532184 2.122332 6.337896
v 5.429554 2.069608 6.276329
v 5.518434 2.115268 6.281658
v 5.480869 2.095970 6.259122
v 5.311176 1.305229 7.185685
v 5.393301 1.225554 7.404763
v 5.352238 1.265391 7.247234
v 5.382298 1.236228 7.327422
v 3.458126 1.575552 7.000915
v 3.355497 1.522828 7.201570
v 3.406812 1.549190 7.053252
v 3.369247 1.529892 7.126698
v 3.576504 2.339931 6.091558
v 3.505383 2.408932 6.080932
v 3.535442 2.379769 6.065140
v 5.393301 1.225554 12.623326
v 5.532184 2.122332 12.623326
v 3.355497 1.522828 12.623326
v 5.331723 1.306462 12.442426
v 5.448820 2.062567 12.442426
v 3.555958 2.338698 12.442426
v 3.438861 1.582593 12.442426
v 5.334081 1.405132 12.461718
v 5.350809 1.513147 12.461718
v 5.367537 1.621162 12.461718
v 5.384265 1.729177 12.461718
v 5.400993 1.837192 12.461718
v 5.417722 1.945207 12.461718
v 3.524860 2.221337 12.461718
v 3.508132 2.113322 12.461718
v 3.491404 2.005307 12.461718
v 3.474676 1.897292 12.461718
v 3.457948 1.789277 12.461718
v 3.441220 1.681262 12.461718
v 5.061314 1.345909 12.442426
v 4.790905 1.385357 12.442426
v 4.520496 1.424804 12.442426
v 4.250087 1.464251 12.442426
v 3.979679 1.503698 12.442426
v 3.709270 1.543145 12.442426
v 3.826367 2.299251 12.442426
v 4.096776 2.259803 12.442426
v 4.367184 2.220356 12.442426
v 4.637593 2.180909 12.442426
v 4.908002 2.141462 12.442426
v 5.178411 2.102015 12.442426
v 3.711628 1.641815 12.461718
v 3.982037 1.602368 12.461718
v 4.252446 1.562920 12.461718
v 4.522854 1.523473 12.461718
v 4.793263 1.484026 12.461718
v 5.063673 1.444579 12.461718
v 3.728357 1.749830 12.461718
v 3.998765 1.710383 12.461718
v 4.269174 1.670936 12.461718
v 4.539582 1.631488 12.461718
v 4.809991 1.592041 12.461718
v 5.080400 1.552594 12.461718
v 3.745085 1.857845 12.461718
v 4.015493 1.818398 12.461718
v 4.285902 1.778951 12.461718
v 4.556310 1.739503 12.461718
v 4.826719 1.700056 12.461718
v 5.097128 1.660609 12.461718
v 3.761813 1.965860 12.461718
v 4.032221 1.926413 12.461718
v 4.302630 1.886966 12.461718
v 4.573039 1.847518 12.461718
v 4.843448 1.808071 12.461718
v 5.113856 1.768624 12.461718
v 3.778541 2.073875 12.461718
v 4.048949 2.034428 12.461718
v 4.319358 1.994981 12.461718
v 4.589767 1.955533 12.461718
v 4.860176 1.916086 12.461718
v 5.130585 1.876639 12.461718
v 3.795269 2.181890 12.461718
v 4.065678 2.142443 12.461718
v 4.336087 2.102996 12.461718
v 4.606495 2.063548 12.461718
v 4.876904 2.024101 12.461718
v 5.147313 1.984654 12.461718
v 5.334081 1.405132 12.597215
v 5.350809 1.513147 12.597215
v 5.367537 1.621162 12.597215
v 5.384265 1.729177 12.597215
v 5.400993 1.837192 12.597215
v 5.417722 1.945207 12.597215
v 3.524860 2.221337 12.597215
v 3.508132 2.113322 12.597215
v 3.491404 2.005307 12.597215
v 3.474676 1.897292 12.597215
v 3.457948 1.789277 12.597215
v 3.441220 1.681262 12.597215
v 5.063673 1.444579 12.597215
v 3.711628 1.641815 12.597215
v 3.982037 1.602368 12.597215
v 4.252446 1.562920 12.597215
v 4.522854 1.523473 12.597215
v 4.793263 1.484026 12.597215
v 5.080400 1.552594 12.597215
v 3.728357 1.749830 12.597215
v 3.998765 1.710383 12.597215
v 4.269174 1.670936 12.597215
v 4.539582 1.631488 12.597215
v 4.809991 1.592041 12.597215
v 5.097128 1.660609 12.597215
v 3.745085 1.857845 12.597215
v 4.015493 1.818398 12.597215
v 4.285902 1.778951 12.597215
v 4.556310 1.739503 12.597215
v 4.826719 1.700056 12.597215
v 5.113856 1.768624 12.597215
v 3.761813 1.965860 12.597215
v 4.032221 1.926413 12.597215
v 4.302630 1.886966 12.597215
v 4.573039 1.847518 12.597215
v 4.843448 1.808071 12.597215
v 5.130585 1.876639 12.597215
v 3.778541 2.073875 12.597215
v 4.048949 2.034428 12.597215
v 4.319358 1.994981 12.597215
v 4.589767 1.955533 12.597215
v 4.860176 1.916086 12.597215
v 5.147313 1.984654 12.597215
v 3.795269 2.181890 12.597215
v 4.065678 2.142443 12.597215
v 4.336087 2.102996 12.597215
v 4.606495 2.063548 12.597215
v 4.876904 2.024101 12.597215
v 5.080065 1.271248 12.623326
v 4.900567 1.297433 12.623326
v 5.039450 2.194212 12.623326
v 5.218948 2.168026 12.623326
v 5.039449 2.194212 10.127792
v 5.080065 1.271248 10.127792
v 5.039449 2.194212 11.150673
v 5.218948 2.168026 10.127792
v 4.900567 1.297433 10.127792
v 5.218948 2.168026 11.150673
v 4.900567 1.297433 11.150673
v 5.080065 1.271248 11.150673
v 4.841785 1.412257 7.093447
v 4.995742 1.389797 7.108798
v 5.102443 2.078774 6.289145
v 4.948487 2.101233 6.273794
v 4.841785 1.412257 7.903683
v 4.995742 1.389797 7.919034
v 5.102443 2.078774 7.099381
v 4.948487 2.101233 7.084030
v 4.900567 1.297433 7.355631
v 5.080065 1.271248 7.373529
v 5.072867 1.281368 7.296568
v 4.895549 1.307235 7.278887
v 5.053202 1.309015 7.217417
v 4.881841 1.334013 7.200330
v 5.026340 1.346781 7.157283
v 4.863115 1.370592 7.141008
v 5.218948 2.168026 6.306663
v 5.039449 2.194212 6.288765
v 5.031685 2.186275 6.233123
v 5.209003 2.160408 6.250803
v 5.010470 2.164592 6.212218
v 5.181832 2.139593 6.229304
v 4.981493 2.134971 6.231652
v 5.144718 2.111160 6.247927
v 5.040767 1.348907 12.623326
v 4.874035 1.373230 12.623326
v 4.991132 2.129335 12.623326
v 5.157863 2.105012 12.623326
v 5.097919 2.571749 12.623326
v 5.153138 2.563694 12.623326
v 5.216522 2.972976 11.150673
v 5.216522 2.972976 10.127792
v 5.161303 2.981032 10.127792
v 5.161303 2.981032 11.150673
v 5.304551 2.720772 8.952303
v 5.043464 2.220134 6.288765
v -3.485686 2.363471 10.127792
v -3.552219 2.411169 10.127792
v -3.552219 2.411169 11.150673
v -3.485686 2.363471 11.150673
v -3.552219 2.411169 6.140471
v -3.485686 2.363471 6.201486
v -3.505370 2.408944 6.080993
v -3.485686 2.363471 12.623326
v -3.552219 2.411169 12.623326
v -3.529131 2.373946 12.623326
v 3.552219 2.411169 11.150673
v 3.485686 2.363471 11.150673
v 3.552219 2.411169 10.127792
v 3.485686 2.363471 10.127792
v 3.485686 2.363471 6.201486
v 3.552219 2.411169 6.140471
v 3.505370 2.408944 6.080993
v 3.552219 2.411169 12.623326
v 3.485686 2.363471 12.623326
v 3.529131 2.373946 12.623326
vn 0.0467 -0.7617 -0.6463
vn 0.1444 -0.9895 -0.0000
vn -0.1444 0.9895 -0.0000
vn -0.9882 -0.1530 -0.0000
vn 0.9882 0.1530 -0.0000
vn -0.9895 -0.1442 -0.0000
vn -0.0000 -0.0000 -1.0000
vn 1.0000 -0.0000 -0.0000
vn -0.0000 -0.0000 1.0000
vn 0.1344 -0.9801 0.1464
vn -0.1345 0.9866 -0.0924
vn -0.1852 -0.7640 -0.6181
vn -0.6087 -0.6446 -0.4626
vn -0.9172 -0.3557 -0.1796
vn 0.1319 -0.9843 -0.1171
vn 0.1078 -0.9466 -0.3039
vn 0.0749 -0.8592 -0.5062
vn 0.9799 -0.0702 -0.1866
vn -0.1653 0.5959 -0.7858
vn -0.0029 -0.5506 -0.8348
vn 0.7246 -0.4782 -0.4963
vn 0.2835 -0.7156 -0.6384
vn 0.1444 0.9895 -0.0000
vn -0.0228 0.1563 0.9874
vn 0.9860 0.1527 0.0664
vn -0.9860 -0.1527 -0.0664
vn 0.0279 -0.1912 0.9812
vn -0.1582 0.9742 -0.1610
vn -0.1469 0.9694 -0.1967
vn -0.1390 0.9526 0.2707
vn -0.9980 0.0567 0.0294
vn -0.9942 -0.1054 0.0228
vn -1.0000 0.0030 -0.0000
vn -0.2980 0.9304 -0.2136
vn -0.0467 -0.7617 -0.6463
vn -0.1444 -0.9895 -0.0000
vn -0.9882 0.1530 -0.0000
vn 0.9882 -0.1530 -0.0000
vn 0.9895 -0.1442 -0.0000
vn -0.1344 -0.9801 0.1464
vn 0.1345 0.9866 -0.0924
vn 0.1582 0.9742 -0.1610
vn 0.1852 -0.7640 -0.6181
vn 0.6087 -0.6446 -0.4626
vn 0.9172 -0.3557 -0.1796
vn -0.1319 -0.9843 -0.1171
vn -0.1078 -0.9466 -0.3039
vn -0.0749 -0.8592 -0.5062
vn -0.9799 -0.0702 -0.1866
vn 0.1653 0.5959 -0.7858
vn 0.0029 -0.5506 -0.8348
vn -0.7246 -0.4782 -0.4963
vn -0.2835 -0.7156 -0.6384
vn 0.0228 0.1563 0.9874
vn -0.9860 0.1527 0.0664
vn 0.9860 -0.1527 -0.0664
vn -0.0279 -0.1912 0.9812
vn 0.1469 0.9694 -0.1967
vn 0.1390 0.9526 0.2707
vn 0.9980 0.0567 0.0294
vn 0.9942 -0.1054 0.0228
vn 1.0000 0.0030 -0.0000
vn 0.2980 0.9304 -0.2136
vn 0.3849 0.8825 0.2702
vn -0.3849 0.8825 0.2702
vn 0.5826 0.8127 -0.0000
vn -0.5826 0.8127 -0.0000
vt 0.604524 0.300747
vt 0.604524 0.267787
vt 0.611954 0.261333
vt 0.611954 0.296277
vt 0.604524 0.319634
vt 0.604524 0.482213
vt 0.632096 0.687500
vt 0.814551 0.687500
vt 0.814551 0.750000
vt 0.632096 0.750000
vt 0.462130 0.991109
vt 0.462129 0.955414
vt 0.462129 0.934959
vt 0.462130 0.758891
vt 0.462129 0.792065
vt 0.462129 0.825239
vt 0.462130 0.858413
vt 0.462130 0.891587
vt 0.462130 0.924761
vt 0.462130 0.957935
vt 0.203165 0.687500
vt 0.448268 0.687500
vt 0.448268 0.750000
vt 0.203165 0.750000
vt 0.836572 0.687500
vt 0.875000 0.687500
vt 0.875000 0.750000
vt 0.836572 0.750000
vt 0.448268 0.125000
vt 0.625000 0.125000
vt 0.625000 0.245820
vt 0.448268 0.244258
vt 0.468744 0.482213
vt 0.611954 0.488667
vt 0.461314 0.488667
vt 0.448268 0.000000
vt 0.625000 0.000000
vt 0.625000 0.062500
vt 0.448268 0.062500
vt 0.836572 0.625000
vt 0.875000 0.625000
vt 0.203165 0.625000
vt 0.448268 0.625000
vt 0.448268 0.687500
vt 0.203165 0.687500
vt 0.448268 0.505361
vt 0.613937 0.504061
vt 0.613937 0.625000
vt 0.375000 0.000000
vt 0.625000 0.250000
vt 0.375000 0.250000
vt 0.625000 0.500000
vt 0.375000 0.500000
vt 0.625000 0.750000
vt 0.375000 0.750000
vt 0.625000 1.000000
vt 0.375000 1.000000
vt 0.125000 0.500000
vt 0.125000 0.750000
vt 0.875000 0.500000
vt 0.468744 0.319635
vt 0.461314 0.316302
vt 0.203165 0.500115
vt 0.203165 0.625000
vt 0.468744 0.267787
vt 0.461314 0.261333
vt 0.632096 0.503980
vt 0.814551 0.504130
vt 0.814551 0.625000
vt 0.632096 0.625000
vt 0.468744 0.319635
vt 0.468744 0.300747
vt 0.468744 0.300747
vt 0.453462 0.255593
vt 0.617148 0.255593
vt 0.450016 0.247324
vt 0.623252 0.247932
vt 0.174690 0.499505
vt 0.125000 0.498442
vt 0.126963 0.494924
vt 0.176050 0.496046
vt 0.132545 0.492527
vt 0.179982 0.493650
vt 0.448268 0.292521
vt 0.448268 0.255835
vt 0.461314 0.296277
vt 0.623254 0.502043
vt 0.450016 0.502605
vt 0.623252 0.502040
vt 0.625000 0.310646
vt 0.625000 0.497895
vt 0.617148 0.494260
vt 0.617148 0.313302
vt 0.611954 0.316302
vt 0.611139 0.758891
vt 0.613937 0.750000
vt 0.617177 0.755018
vt 0.453462 0.494260
vt 0.836572 0.504148
vt 0.875000 0.504180
vt 0.836572 0.625000
vt 0.611138 0.991109
vt 0.448268 1.000000
vt 0.611138 0.934960
vt 0.625000 0.757096
vt 0.625000 0.939551
vt 0.448268 0.961572
vt 0.589851 0.957935
vt 0.611138 0.957935
vt 0.589851 0.991109
vt 0.483416 0.991109
vt 0.504704 0.991109
vt 0.525990 0.991109
vt 0.547277 0.991109
vt 0.568564 0.991109
vt 0.611138 0.955414
vt 0.611138 0.924761
vt 0.611138 0.891587
vt 0.611139 0.858413
vt 0.611139 0.825239
vt 0.611139 0.792065
vt 0.589852 0.758891
vt 0.568565 0.758891
vt 0.547278 0.758891
vt 0.525991 0.758891
vt 0.504704 0.758891
vt 0.483416 0.758891
vt 0.483416 0.957935
vt 0.568564 0.891587
vt 0.568564 0.858413
vt 0.504704 0.957935
vt 0.525990 0.957935
vt 0.483416 0.924761
vt 0.483416 0.891587
vt 0.547277 0.957935
vt 0.568564 0.957935
vt 0.525990 0.891587
vt 0.525990 0.858413
vt 0.483416 0.792065
vt 0.483416 0.825239
vt 0.483416 0.858413
vt 0.568564 0.825239
vt 0.525990 0.825239
vt 0.568565 0.792065
vt 0.525991 0.792065
vt 0.504704 0.792065
vt 0.504704 0.825239
vt 0.504704 0.858413
vt 0.504704 0.891587
vt 0.525990 0.924761
vt 0.504704 0.924761
vt 0.547278 0.792065
vt 0.547278 0.825239
vt 0.547278 0.858413
vt 0.547278 0.891587
vt 0.568564 0.924761
vt 0.547277 0.924761
vt 0.589851 0.924761
vt 0.589851 0.891587
vt 0.589852 0.792065
vt 0.589852 0.825239
vt 0.589851 0.858413
vt 0.625000 0.961572
vt 0.448268 0.939551
vt 0.613937 0.687500
vt 0.821325 0.625000
vt 0.617148 0.292279
vt 0.625000 0.250931
vt 0.625000 0.288893
vt 0.836107 0.500000
vt 0.874069 0.500000
vt 0.814354 0.500000
vt 0.448268 0.494502
vt 0.448268 0.313544
vt 0.446305 0.502224
vt 0.204179 0.496689
vt 0.207166 0.494293
vt 0.441158 0.499832
vt 0.174690 0.625000
vt 0.125000 0.625000
vt 0.125000 0.625000
vt 0.174690 0.625000
vt 0.174690 0.687500
vt 0.125000 0.687500
vt 0.613937 0.687500
vt 0.632096 0.503980
vt 0.627103 0.500004
vt 0.627105 0.500000
vt 0.125000 0.687500
vt 0.174690 0.687500
vt 0.174690 0.750000
vt 0.125000 0.750000
vt 0.836572 0.587822
vt 0.821325 0.625000
vt 0.821325 0.687500
vt 0.814551 0.687500
vt 0.821325 0.687500
vt 0.821325 0.750000
vt 0.625000 0.946325
vt 0.632096 0.625000
vt 0.623254 0.502043
vt 0.625000 0.757096
vt 0.613937 0.625000
vt 0.613937 0.750000
vt 0.613937 0.687500
vt 0.622739 0.503259
vt 0.623254 0.502043
vt 0.619469 0.753548
vt 0.632096 0.625000
vt 0.632096 0.687500
s 0
usemtl Material.002
f 358/49/151 191/50/151 215/51/151 379/52/151
f 359/53/152 195/54/152 213/54/152 363/53/152
f 594/55/153 349/56/153 346/57/153 600/58/153
f 188/59/153 380/60/153 381/61/153 192/62/153 235/62/153 253/63/153 252/64/153 251/65/153 250/66/153 249/67/153 248/68/153 232/59/153
f 350/69/152 200/70/152 231/71/152 345/72/152
f 354/73/153 199/74/153 230/75/153 347/76/153
f 194/81/151 195/54/151 226/82/151 222/83/151
f 351/88/153 197/89/153 199/74/153 354/73/153
f 348/90/152 198/91/152 200/92/152 350/93/152
f 223/94/155 597/95/155 592/96/155 198/91/155
f 202/97/156 203/85/156 205/98/156 204/99/156
f 204/99/157 205/98/157 209/100/157 208/101/157
f 208/101/158 209/100/158 207/102/158 206/103/158
f 206/103/159 207/102/159 203/104/159 202/105/159
f 204/106/160 208/101/160 206/103/160 202/107/160
f 209/100/161 205/108/161 203/75/161 207/102/161
f 356/109/151 194/81/151 222/83/151 371/110/151
f 364/111/152 223/94/152 198/91/152 348/112/152
f 191/50/151 190/113/151 218/114/151 215/51/151
f 596/115/153 373/116/153 352/117/153 593/118/153
f 360/119/151 363/53/151 213/54/151 212/81/151
f 190/113/155 191/50/155 210/50/155 211/113/155
f 195/54/154 194/81/154 212/81/154 213/54/154
f 357/120/153 190/113/153 211/113/153 361/121/153
f 215/51/162 218/114/162 220/122/162 217/123/162
f 217/123/163 220/122/163 221/124/163 216/125/163
f 216/125/164 221/124/164 219/80/164 214/79/164
f 365/126/165 219/127/165 221/128/165 366/129/165
f 366/129/166 221/128/166 220/130/166 368/131/166
f 368/132/167 220/133/167 218/114/167 370/134/167
f 598/135/168 597/95/168 223/94/168 225/136/168 227/137/168
f 374/138/169 227/139/169 228/140/169 376/141/169
f 376/141/170 228/140/170 226/82/170 378/142/170
f 193/143/159 192/62/159 231/71/159 599/144/159 601/145/159
f 227/137/171 225/136/171 224/146/171 228/140/171
f 228/140/172 224/146/172 222/83/172 226/82/172
f 372/147/153 214/148/153 197/89/153 351/149/153
f 188/59/159 189/150/159 230/104/159 229/151/159
f 382/152/159 193/143/159 601/145/159 600/153/159 346/154/159
f 380/60/159 188/59/159 229/151/159 344/155/159
f 602/55/173 609/58/173 546/57/173 550/56/173
f 189/150/175 188/59/175 232/59/175 236/159/175 237/160/175 238/161/175 239/162/175 240/163/175 241/158/175 233/150/175
f 193/143/152 382/152/152 383/164/152 189/150/152 233/150/152 259/157/152 258/165/152 257/166/152 256/167/152 255/168/152 254/169/152 234/143/152
f 192/62/176 193/143/176 234/143/176 242/170/176 243/171/176 244/172/176 245/173/176 246/174/176 247/175/176 235/62/176
f 287/177/152 286/178/152 335/178/152 336/177/152
f 264/181/152 263/182/152 312/182/152 313/181/152
f 275/185/152 274/186/152 323/186/152 324/185/152
f 286/178/152 285/190/152 334/190/152 335/178/152
f 263/182/152 262/189/152 311/189/152 312/182/152
f 237/160/154 236/159/154 296/159/154 297/160/154
f 274/186/152 273/191/152 322/191/152 323/186/152
f 285/190/152 284/192/152 333/192/152 334/190/152
f 262/189/152 261/188/152 310/188/152 311/189/152
f 273/191/152 272/193/152 321/193/152 322/191/152
f 284/192/152 243/171/152 303/171/152 333/192/152
f 261/188/152 260/187/152 309/187/152 310/188/152
f 272/193/152 245/173/152 305/173/152 321/193/152
f 240/163/152 289/184/152 332/184/152 300/163/152
f 260/187/152 247/175/152 307/175/152 309/187/152
f 294/206/153 295/156/153 338/156/153 343/206/153
f 238/161/152 277/180/152 320/180/152 298/161/152
f 247/175/155 246/174/155 306/174/155 307/175/155
f 282/205/153 283/183/153 326/183/153 331/205/153
f 236/159/152 265/176/152 308/176/152 296/159/152
f 293/207/153 294/206/153 343/206/153 342/207/153
f 308/176/159 314/179/159 297/160/159 296/159/159
f 320/180/159 326/183/159 299/162/159 298/161/159
f 332/184/159 338/156/159 301/158/159 300/163/159
f 307/175/159 306/174/159 315/194/159 309/187/159
f 309/187/159 315/194/159 316/195/159 310/188/159
f 310/188/159 316/195/159 317/196/159 311/189/159
f 311/189/159 317/196/159 318/197/159 312/182/159
f 312/182/159 318/197/159 319/199/159 313/181/159
f 313/181/159 319/199/159 314/179/159 308/176/159
f 305/173/159 304/172/159 327/200/159 321/193/159
f 321/193/159 327/200/159 328/201/159 322/191/159
f 322/191/159 328/201/159 329/202/159 323/186/159
f 323/186/159 329/202/159 330/203/159 324/185/159
f 324/185/159 330/203/159 331/205/159 325/198/159
f 325/198/159 331/205/159 326/183/159 320/180/159
f 303/171/159 302/170/159 339/208/159 333/192/159
f 333/192/159 339/208/159 340/209/159 334/190/159
f 334/190/159 340/209/159 341/210/159 335/178/159
f 335/178/159 341/210/159 342/207/159 336/177/159
f 336/177/159 342/207/159 343/206/159 337/204/159
f 337/204/159 343/206/159 338/156/159 332/184/159
f 276/198/152 275/185/152 324/185/152 325/198/152
f 239/162/154 238/161/154 298/161/154 299/162/154
f 265/176/152 264/181/152 313/181/152 308/176/152
f 288/204/152 287/177/152 336/177/152 337/204/152
f 277/180/152 276/198/152 325/198/152 320/180/152
f 271/179/153 237/160/153 297/160/153 314/179/153
f 289/184/152 288/204/152 337/204/152 332/184/152
f 283/183/153 239/162/153 299/162/153 326/183/153
f 241/158/154 240/163/154 300/163/154 301/158/154
f 246/174/153 266/194/153 315/194/153 306/174/153
f 295/156/153 241/158/153 301/158/153 338/156/153
f 244/172/153 278/200/153 327/200/153 304/172/153
f 266/194/153 267/195/153 316/195/153 315/194/153
f 242/170/153 290/208/153 339/208/153 302/170/153
f 278/200/153 279/201/153 328/201/153 327/200/153
f 243/171/155 242/170/155 302/170/155 303/171/155
f 267/195/153 268/196/153 317/196/153 316/195/153
f 290/208/153 291/209/153 340/209/153 339/208/153
f 279/201/153 280/202/153 329/202/153 328/201/153
f 268/196/153 269/197/153 318/197/153 317/196/153
f 291/209/153 292/210/153 341/210/153 340/209/153
f 280/202/153 281/203/153 330/203/153 329/202/153
f 245/173/155 244/172/155 304/172/155 305/173/155
f 269/197/153 270/199/153 319/199/153 318/197/153
f 292/210/153 293/207/153 342/207/153 341/210/153
f 281/203/153 282/205/153 331/205/153 330/203/153
f 270/199/153 271/179/153 314/179/153 319/199/153
f 189/150/159 383/164/159 347/211/159 230/104/159
f 383/164/159 382/152/159 346/154/159 347/211/159
f 192/62/159 381/61/159 345/212/159 231/71/159
f 381/61/159 380/60/159 344/155/159 345/212/159
f 200/70/155 595/213/155 599/144/155 231/71/155
f 351/149/159 352/117/159 386/117/159 389/214/159
f 217/123/170 377/215/170 379/52/170 215/51/170
f 377/215/170 376/141/170 378/142/170 379/52/170
f 216/216/169 375/217/169 377/215/169 217/123/169
f 375/217/169 374/138/169 376/141/169 377/215/169
f 214/148/178 372/147/178 375/218/178 216/219/178
f 372/147/178 373/116/178 374/220/178 375/218/178
f 224/221/167 369/222/167 371/110/167 222/83/167
f 369/222/167 368/132/167 370/134/167 371/110/167
f 225/223/166 367/224/166 369/225/166 224/226/166
f 367/224/166 366/129/166 368/131/166 369/225/166
f 223/94/165 364/111/165 367/224/165 225/223/165
f 364/111/165 365/126/165 366/129/165 367/224/165
f 194/81/153 356/109/153 360/119/153 212/81/153
f 356/109/153 357/120/153 361/121/153 360/119/153
f 211/113/151 210/50/151 362/49/151 361/121/151
f 361/121/151 362/49/151 363/53/151 360/119/151
f 219/127/152 365/126/152 353/227/152 196/228/152
f 365/126/152 364/111/152 348/112/152 353/227/152
f 190/113/151 357/120/151 370/134/151 218/114/151
f 357/120/151 356/109/151 371/110/151 370/134/151
f 196/229/152 353/230/152 355/231/152 201/232/152
f 353/230/152 348/90/152 350/93/152 355/231/152
f 198/91/155 592/96/155 595/233/155 200/92/155
f 373/116/178 596/234/178 598/235/178 227/236/178 374/220/178
f 201/237/152 355/238/152 344/239/152 229/240/152
f 355/238/152 350/69/152 345/72/152 344/239/152
f 191/50/152 358/49/152 362/49/152 210/50/152
f 358/49/152 359/53/152 363/53/152 362/49/152
f 195/54/151 359/53/151 378/142/151 226/82/151
f 359/53/151 358/49/151 379/52/151 378/142/151
f 349/56/157 354/73/157 387/245/157 388/56/157
f 558/49/185 579/52/185 415/51/185 395/50/185
f 559/53/186 563/53/186 413/54/186 399/54/186
f 400/91/187 403/92/187 603/233/187 605/96/187
f 392/59/173 432/59/173 448/68/173 449/67/173 450/66/173 451/65/173 452/64/173 453/63/173 435/62/173 396/62/173 581/61/173 580/60/173
f 554/69/186 545/72/186 431/71/186 403/70/186
f 553/73/173 547/76/173 430/75/173 402/74/173
f 398/81/185 422/83/185 426/82/185 399/54/185
f 551/88/173 553/73/173 402/74/173 404/89/173
f 552/90/186 554/93/186 403/92/186 400/91/186
f 607/115/173 604/248/173 548/117/173 573/116/173
f 406/97/189 408/99/189 409/98/189 407/85/189
f 408/99/157 208/101/157 209/100/157 409/98/157
f 206/103/159 406/105/159 407/104/159 207/102/159
f 408/106/190 406/107/190 206/103/190 208/101/190
f 209/100/191 207/102/191 407/75/191 409/108/191
f 556/109/185 571/110/185 422/83/185 398/81/185
f 564/111/186 552/112/186 400/91/186 423/94/186
f 395/50/185 415/51/185 418/114/185 394/113/185
f 573/116/192 574/220/192 427/236/192 608/235/192 607/234/192
f 560/119/185 412/81/185 413/54/185 563/53/185
f 394/113/187 411/113/187 410/50/187 395/50/187
f 399/54/188 413/54/188 412/81/188 398/81/188
f 557/120/173 561/121/173 411/113/173 394/113/173
f 415/51/193 417/123/193 420/122/193 418/114/193
f 417/123/194 416/125/194 421/124/194 420/122/194
f 416/125/195 414/79/195 419/80/195 421/124/195
f 565/126/196 566/129/196 421/128/196 419/127/196
f 566/129/197 568/131/197 420/130/197 421/128/197
f 568/132/198 570/134/198 418/114/198 420/133/198
f 606/95/199 608/249/199 427/137/199 425/136/199 423/94/199
f 574/138/200 576/141/200 428/140/200 427/139/200
f 576/141/201 578/142/201 426/82/201 428/140/201
f 397/143/159 611/145/159 610/144/159 431/71/159 396/62/159
f 427/137/202 428/140/202 424/146/202 425/136/202
f 428/140/203 426/82/203 422/83/203 424/146/203
f 572/147/173 551/149/173 404/89/173 414/148/173
f 392/59/159 429/151/159 430/104/159 393/150/159
f 582/152/159 546/154/159 609/250/159 611/145/159 397/143/159
f 580/60/159 544/155/159 429/151/159 392/59/159
f 393/150/205 433/150/205 441/158/205 440/163/205 439/162/205 438/161/205 437/160/205 436/159/205 432/59/205 392/59/205
f 397/143/186 434/143/186 454/169/186 455/168/186 456/167/186 457/166/186 458/165/186 459/157/186 433/150/186 393/150/186 583/164/186 582/152/186
f 396/62/206 435/62/206 447/175/206 446/174/206 445/173/206 444/172/206 443/171/206 442/170/206 434/143/206 397/143/206
f 487/177/186 536/177/186 535/178/186 486/178/186
f 464/181/186 513/181/186 512/182/186 463/182/186
f 475/185/186 524/185/186 523/186/186 474/186/186
f 486/178/186 535/178/186 534/190/186 485/190/186
f 463/182/186 512/182/186 511/189/186 462/189/186
f 437/160/188 497/160/188 496/159/188 436/159/188
f 474/186/186 523/186/186 522/191/186 473/191/186
f 485/190/186 534/190/186 533/192/186 484/192/186
f 462/189/186 511/189/186 510/188/186 461/188/186
f 473/191/186 522/191/186 521/193/186 472/193/186
f 484/192/186 533/192/186 503/171/186 443/171/186
f 461/188/186 510/188/186 509/187/186 460/187/186
f 472/193/186 521/193/186 505/173/186 445/173/186
f 440/163/186 500/163/186 532/184/186 489/184/186
f 460/187/186 509/187/186 507/175/186 447/175/186
f 494/206/173 543/206/173 538/156/173 495/156/173
f 438/161/186 498/161/186 520/180/186 477/180/186
f 447/175/187 507/175/187 506/174/187 446/174/187
f 482/205/173 531/205/173 526/183/173 483/183/173
f 436/159/186 496/159/186 508/176/186 465/176/186
f 493/207/173 542/207/173 543/206/173 494/206/173
f 508/176/159 496/159/159 497/160/159 514/179/159
f 520/180/159 498/161/159 499/162/159 526/183/159
f 532/184/159 500/163/159 501/158/159 538/156/159
f 507/175/159 509/187/159 515/194/159 506/174/159
f 509/187/159 510/188/159 516/195/159 515/194/159
f 510/188/159 511/189/159 517/196/159 516/195/159
f 511/189/159 512/182/159 518/197/159 517/196/159
f 512/182/159 513/181/159 519/199/159 518/197/159
f 513/181/159 508/176/159 514/179/159 519/199/159
f 505/173/159 521/193/159 527/200/159 504/172/159
f 521/193/159 522/191/159 528/201/159 527/200/159
f 522/191/159 523/186/159 529/202/159 528/201/159
f 523/186/159 524/185/159 530/203/159 529/202/159
f 524/185/159 525/198/159 531/205/159 530/203/159
f 525/198/159 520/180/159 526/183/159 531/205/159
f 503/171/159 533/192/159 539/208/159 502/170/159
f 533/192/159 534/190/159 540/209/159 539/208/159
f 534/190/159 535/178/159 541/210/159 540/209/159
f 535/178/159 536/177/159 542/207/159 541/210/159
f 536/177/159 537/204/159 543/206/159 542/207/159
f 537/204/159 532/184/159 538/156/159 543/206/159
f 476/198/186 525/198/186 524/185/186 475/185/186
f 439/162/188 499/162/188 498/161/188 438/161/188
f 465/176/186 508/176/186 513/181/186 464/181/186
f 488/204/186 537/204/186 536/177/186 487/177/186
f 477/180/186 520/180/186 525/198/186 476/198/186
f 471/179/173 514/179/173 497/160/173 437/160/173
f 489/184/186 532/184/186 537/204/186 488/204/186
f 483/183/173 526/183/173 499/162/173 439/162/173
f 441/158/188 501/158/188 500/163/188 440/163/188
f 446/174/173 506/174/173 515/194/173 466/194/173
f 495/156/173 538/156/173 501/158/173 441/158/173
f 444/172/173 504/172/173 527/200/173 478/200/173
f 466/194/173 515/194/173 516/195/173 467/195/173
f 442/170/173 502/170/173 539/208/173 490/208/173
f 478/200/173 527/200/173 528/201/173 479/201/173
f 443/171/187 503/171/187 502/170/187 442/170/187
f 467/195/173 516/195/173 517/196/173 468/196/173
f 490/208/173 539/208/173 540/209/173 491/209/173
f 479/201/173 528/201/173 529/202/173 480/202/173
f 468/196/173 517/196/173 518/197/173 469/197/173
f 491/209/173 540/209/173 541/210/173 492/210/173
f 480/202/173 529/202/173 530/203/173 481/203/173
f 445/173/187 505/173/187 504/172/187 444/172/187
f 469/197/173 518/197/173 519/199/173 470/199/173
f 492/210/173 541/210/173 542/207/173 493/207/173
f 481/203/173 530/203/173 531/205/173 482/205/173
f 470/199/173 519/199/173 514/179/173 471/179/173
f 393/150/159 430/104/159 547/211/159 583/164/159
f 583/164/159 547/211/159 546/154/159 582/152/159
f 396/62/159 431/71/159 545/212/159 581/61/159
f 581/61/159 545/212/159 544/155/159 580/60/159
f 423/94/187 400/91/187 605/251/187 606/95/187
f 551/149/159 587/214/159 588/117/159 548/117/159
f 417/123/201 415/51/201 579/52/201 577/215/201
f 577/215/201 579/52/201 578/142/201 576/141/201
f 416/216/200 417/123/200 577/215/200 575/217/200
f 575/217/200 577/215/200 576/141/200 574/138/200
f 414/148/192 416/219/192 575/218/192 572/147/192
f 572/147/192 575/218/192 574/220/192 573/116/192
f 424/221/198 422/83/198 571/110/198 569/222/198
f 569/222/198 571/110/198 570/134/198 568/132/198
f 425/223/197 424/226/197 569/225/197 567/224/197
f 567/224/197 569/225/197 568/131/197 566/129/197
f 423/94/196 425/223/196 567/224/196 564/111/196
f 564/111/196 567/224/196 566/129/196 565/126/196
f 398/81/173 412/81/173 560/119/173 556/109/173
f 556/109/173 560/119/173 561/121/173 557/120/173
f 411/113/185 561/121/185 562/49/185 410/50/185
f 561/121/185 560/119/185 563/53/185 562/49/185
f 419/127/186 405/228/186 549/227/186 565/126/186
f 565/126/186 549/227/186 552/112/186 564/111/186
f 394/113/185 418/114/185 570/134/185 557/120/185
f 557/120/185 570/134/185 571/110/185 556/109/185
f 405/229/186 401/232/186 555/231/186 549/230/186
f 549/230/186 555/231/186 554/93/186 552/90/186
f 403/70/187 431/71/187 610/252/187 603/253/187
f 604/118/173 602/55/173 550/244/173 548/117/173
f 401/237/186 429/240/186 544/239/186 555/238/186
f 555/238/186 544/239/186 545/72/186 554/69/186
f 395/50/186 410/50/186 562/49/186 558/49/186
f 558/49/186 562/49/186 563/53/186 559/53/186
f 399/54/185 426/82/185 578/142/185 559/53/185
f 559/53/185 578/142/185 579/52/185 558/49/185
f 550/56/157 589/56/157 586/245/157 553/73/157
f 596/254/214 597/95/214 598/255/214
f 599/144/159 600/256/159 601/145/159
f 606/95/215 607/254/215 608/249/215
f 609/256/159 610/144/159 611/145/159
f 593/257/216 594/258/216 595/233/216 592/96/216
f 603/253/217 610/252/217 609/58/217 602/55/217
f 594/55/216 600/58/216 599/144/216 595/213/216
f 592/96/216 597/95/216 596/115/216 593/118/216
f 605/96/217 603/233/217 602/55/217 604/118/217
f 604/248/217 607/115/217 606/95/217 605/251/217
f 593/257/153 352/117/153 349/244/153 594/258/153
usemtl Material.001
f 196/77/154 197/78/154 214/79/154 219/80/154
f 229/84/154 230/85/154 199/86/154 201/87/154
f 201/87/154 199/86/154 197/78/154 196/77/154
f 352/117/155 373/116/155 391/116/155 386/117/155
f 346/57/155 349/56/155 388/56/155 384/57/155
f 391/116/179 390/241/179 389/214/179 386/117/179
f 386/117/153 389/242/153 387/243/153 388/244/153
f 388/56/180 387/245/180 385/246/180 384/57/180
f 349/244/155 352/117/155 386/117/155 388/244/155
f 354/73/181 347/76/181 385/246/181 387/245/181
f 372/147/182 351/149/182 389/214/182 390/241/182
f 351/88/183 354/73/183 387/243/183 389/242/183
f 373/116/184 372/147/184 390/241/184 391/116/184
f 347/211/159 346/154/159 384/154/159 385/247/159
f 405/77/188 419/80/188 414/79/188 404/78/188
f 429/84/188 401/87/188 402/86/188 430/85/188
f 401/87/188 405/77/188 404/78/188 402/86/188
f 548/117/187 588/117/187 591/116/187 573/116/187
f 546/57/187 584/57/187 589/56/187 550/56/187
f 591/116/208 588/117/208 587/214/208 590/241/208
f 588/117/173 589/244/173 586/243/173 587/242/173
f 589/56/209 584/57/209 585/246/209 586/245/209
f 550/244/187 589/244/187 588/117/187 548/117/187
f 553/73/210 586/245/210 585/246/210 547/76/210
f 572/147/211 590/241/211 587/214/211 551/149/211
f 551/88/212 587/242/212 586/243/212 553/73/212
f 573/116/213 591/116/213 590/241/213 572/147/213
f 547/211/159 585/247/159 584/154/159 546/154/159
usemtl Material.004
f 295/156/174 259/157/174 233/150/174 241/158/174
f 248/68/177 265/176/177 236/159/177 232/59/177
f 271/179/159 277/180/159 238/161/159 237/160/159
f 283/183/159 289/184/159 240/163/159 239/162/159
f 235/62/177 247/175/177 260/187/177 253/63/177
f 253/63/177 260/187/177 261/188/177 252/64/177
f 252/64/177 261/188/177 262/189/177 251/65/177
f 251/65/177 262/189/177 263/182/177 250/66/177
f 250/66/177 263/182/177 264/181/177 249/67/177
f 249/67/177 264/181/177 265/176/177 248/68/177
f 246/174/159 245/173/159 272/193/159 266/194/159
f 266/194/159 272/193/159 273/191/159 267/195/159
f 267/195/159 273/191/159 274/186/159 268/196/159
f 268/196/159 274/186/159 275/185/159 269/197/159
f 269/197/159 275/185/159 276/198/159 270/199/159
f 270/199/159 276/198/159 277/180/159 271/179/159
f 244/172/159 243/171/159 284/192/159 278/200/159
f 278/200/159 284/192/159 285/190/159 279/201/159
f 279/201/159 285/190/159 286/178/159 280/202/159
f 280/202/159 286/178/159 287/177/159 281/203/159
f 281/203/159 287/177/159 288/204/159 282/205/159
f 282/205/159 288/204/159 289/184/159 283/183/159
f 242/170/174 234/143/174 254/169/174 290/208/174
f 290/208/174 254/169/174 255/168/174 291/209/174
f 291/209/174 255/168/174 256/167/174 292/210/174
f 292/210/174 256/167/174 257/166/174 293/207/174
f 293/207/174 257/166/174 258/165/174 294/206/174
f 294/206/174 258/165/174 259/157/174 295/156/174
f 495/156/204 441/158/204 433/150/204 459/157/204
f 448/68/207 432/59/207 436/159/207 465/176/207
f 471/179/159 437/160/159 438/161/159 477/180/159
f 483/183/159 439/162/159 440/163/159 489/184/159
f 435/62/207 453/63/207 460/187/207 447/175/207
f 453/63/207 452/64/207 461/188/207 460/187/207
f 452/64/207 451/65/207 462/189/207 461/188/207
f 451/65/207 450/66/207 463/182/207 462/189/207
f 450/66/207 449/67/207 464/181/207 463/182/207
f 449/67/207 448/68/207 465/176/207 464/181/207
f 446/174/159 466/194/159 472/193/159 445/173/159
f 466/194/159 467/195/159 473/191/159 472/193/159
f 467/195/159 468/196/159 474/186/159 473/191/159
f 468/196/159 469/197/159 475/185/159 474/186/159
f 469/197/159 470/199/159 476/198/159 475/185/159
f 470/199/159 471/179/159 477/180/159 476/198/159
f 444/172/159 478/200/159 484/192/159 443/171/159
f 478/200/159 479/201/159 485/190/159 484/192/159
f 479/201/159 480/202/159 486/178/159 485/190/159
f 480/202/159 481/203/159 487/177/159 486/178/159
f 481/203/159 482/205/159 488/204/159 487/177/159
f 482/205/159 483/183/159 489/184/159 488/204/159
f 442/170/204 490/208/204 454/169/204 434/143/204
f 490/208/204 491/209/204 455/168/204 454/169/204
f 491/209/204 492/210/204 456/167/204 455/168/204
f 492/210/204 493/207/204 457/166/204 456/167/204
f 493/207/204 494/206/204 458/165/204 457/166/204
f 494/206/204 495/156/204 459/157/204 458/165/204
